<?xml version="1.0" encoding="UTF-8"?>
<svg width="120" height="800" viewBox="0 0 120 800" fill="none" xmlns="http://www.w3.org/2000/svg">
  <!-- Tige principale -->
  <path d="M60 0 Q 55 400 60 800" stroke="white" stroke-width="1.5" fill="none" opacity="0.7"/>
  
  <!-- Tiges secondaires -->
  <path d="M60 50 Q 58 150 60 250" stroke="white" stroke-width="1" fill="none" opacity="0.6"/>
  <path d="M60 300 Q 62 400 60 500" stroke="white" stroke-width="1" fill="none" opacity="0.6"/>
  <path d="M60 550 Q 58 650 60 750" stroke="white" stroke-width="1" fill="none" opacity="0.6"/>
  
  <!-- Feuilles complexes côté gauche -->
  <path d="M60 80 C 50 75 40 78 30 85 C 20 92 15 100 20 110 C 25 118 35 120 45 115 C 55 110 60 95 60 85" stroke="white" stroke-width="1" fill="none" opacity="0.7"/>
  <path d="M60 80 C 52 83 45 90 40 98 C 35 105 38 112 45 115" stroke="white" stroke-width="0.75" fill="none" opacity="0.6"/>
  
  <path d="M60 180 C 45 175 30 180 20 190 C 10 200 5 215 15 225 C 25 235 40 230 50 220 C 58 210 60 195 60 185" stroke="white" stroke-width="1" fill="none" opacity="0.7"/>
  <path d="M60 180 C 50 185 40 195 35 205 C 30 215 35 220 40 222" stroke="white" stroke-width="0.75" fill="none" opacity="0.6"/>
  
  <path d="M60 280 C 50 275 35 280 25 290 C 15 300 10 315 20 325 C 30 335 45 330 55 320 C 60 310 60 290 60 285" stroke="white" stroke-width="1" fill="none" opacity="0.7"/>
  <path d="M60 280 C 52 285 45 295 38 305 C 32 315 35 322 42 325" stroke="white" stroke-width="0.75" fill="none" opacity="0.6"/>
  
  <path d="M60 380 C 45 375 30 380 20 390 C 10 400 5 415 15 425 C 25 435 40 430 50 420 C 58 410 60 395 60 385" stroke="white" stroke-width="1" fill="none" opacity="0.7"/>
  <path d="M60 380 C 50 385 40 395 35 405 C 30 415 35 420 40 422" stroke="white" stroke-width="0.75" fill="none" opacity="0.6"/>
  
  <path d="M60 480 C 50 475 35 480 25 490 C 15 500 10 515 20 525 C 30 535 45 530 55 520 C 60 510 60 490 60 485" stroke="white" stroke-width="1" fill="none" opacity="0.7"/>
  <path d="M60 480 C 52 485 45 495 38 505 C 32 515 35 522 42 525" stroke="white" stroke-width="0.75" fill="none" opacity="0.6"/>
  
  <path d="M60 580 C 45 575 30 580 20 590 C 10 600 5 615 15 625 C 25 635 40 630 50 620 C 58 610 60 595 60 585" stroke="white" stroke-width="1" fill="none" opacity="0.7"/>
  <path d="M60 580 C 50 585 40 595 35 605 C 30 615 35 620 40 622" stroke="white" stroke-width="0.75" fill="none" opacity="0.6"/>
  
  <path d="M60 680 C 50 675 35 680 25 690 C 15 700 10 715 20 725 C 30 735 45 730 55 720 C 60 710 60 690 60 685" stroke="white" stroke-width="1" fill="none" opacity="0.7"/>
  <path d="M60 680 C 52 685 45 695 38 705 C 32 715 35 722 42 725" stroke="white" stroke-width="0.75" fill="none" opacity="0.6"/>
  
  <!-- Feuilles complexes côté droit -->
  <path d="M60 130 C 70 125 85 128 95 135 C 105 142 110 150 105 160 C 100 168 90 170 80 165 C 70 160 60 145 60 135" stroke="white" stroke-width="1" fill="none" opacity="0.7"/>
  <path d="M60 130 C 68 133 75 140 80 148 C 85 155 82 162 75 165" stroke="white" stroke-width="0.75" fill="none" opacity="0.6"/>
  
  <path d="M60 230 C 75 225 90 230 100 240 C 110 250 115 265 105 275 C 95 285 80 280 70 270 C 62 260 60 245 60 235" stroke="white" stroke-width="1" fill="none" opacity="0.7"/>
  <path d="M60 230 C 70 235 80 245 85 255 C 90 265 85 270 80 272" stroke="white" stroke-width="0.75" fill="none" opacity="0.6"/>
  
  <path d="M60 330 C 70 325 85 330 95 340 C 105 350 110 365 100 375 C 90 385 75 380 65 370 C 60 360 60 340 60 335" stroke="white" stroke-width="1" fill="none" opacity="0.7"/>
  <path d="M60 330 C 68 335 75 345 82 355 C 88 365 85 372 78 375" stroke="white" stroke-width="0.75" fill="none" opacity="0.6"/>
  
  <path d="M60 430 C 75 425 90 430 100 440 C 110 450 115 465 105 475 C 95 485 80 480 70 470 C 62 460 60 445 60 435" stroke="white" stroke-width="1" fill="none" opacity="0.7"/>
  <path d="M60 430 C 70 435 80 445 85 455 C 90 465 85 470 80 472" stroke="white" stroke-width="0.75" fill="none" opacity="0.6"/>
  
  <path d="M60 530 C 70 525 85 530 95 540 C 105 550 110 565 100 575 C 90 585 75 580 65 570 C 60 560 60 540 60 535" stroke="white" stroke-width="1" fill="none" opacity="0.7"/>
  <path d="M60 530 C 68 535 75 545 82 555 C 88 565 85 572 78 575" stroke="white" stroke-width="0.75" fill="none" opacity="0.6"/>
  
  <path d="M60 630 C 75 625 90 630 100 640 C 110 650 115 665 105 675 C 95 685 80 680 70 670 C 62 660 60 645 60 635" stroke="white" stroke-width="1" fill="none" opacity="0.7"/>
  <path d="M60 630 C 70 635 80 645 85 655 C 90 665 85 670 80 672" stroke="white" stroke-width="0.75" fill="none" opacity="0.6"/>
  
  <path d="M60 730 C 70 725 85 730 95 740 C 105 750 110 765 100 775 C 90 785 75 780 65 770 C 60 760 60 740 60 735" stroke="white" stroke-width="1" fill="none" opacity="0.7"/>
  <path d="M60 730 C 68 735 75 745 82 755 C 88 765 85 772 78 775" stroke="white" stroke-width="0.75" fill="none" opacity="0.6"/>
  
  <!-- Petites vrilles et détails -->
  <path d="M60 100 Q 55 95 50 98 Q 45 103 47 107" stroke="white" stroke-width="0.75" fill="none" opacity="0.5"/>
  <path d="M60 150 Q 65 145 70 148 Q 75 153 73 157" stroke="white" stroke-width="0.75" fill="none" opacity="0.5"/>
  <path d="M60 200 Q 55 195 50 198 Q 45 203 47 207" stroke="white" stroke-width="0.75" fill="none" opacity="0.5"/>
  <path d="M60 250 Q 65 245 70 248 Q 75 253 73 257" stroke="white" stroke-width="0.75" fill="none" opacity="0.5"/>
  <path d="M60 300 Q 55 295 50 298 Q 45 303 47 307" stroke="white" stroke-width="0.75" fill="none" opacity="0.5"/>
  <path d="M60 350 Q 65 345 70 348 Q 75 353 73 357" stroke="white" stroke-width="0.75" fill="none" opacity="0.5"/>
  <path d="M60 400 Q 55 395 50 398 Q 45 403 47 407" stroke="white" stroke-width="0.75" fill="none" opacity="0.5"/>
  <path d="M60 450 Q 65 445 70 448 Q 75 453 73 457" stroke="white" stroke-width="0.75" fill="none" opacity="0.5"/>
  <path d="M60 500 Q 55 495 50 498 Q 45 503 47 507" stroke="white" stroke-width="0.75" fill="none" opacity="0.5"/>
  <path d="M60 550 Q 65 545 70 548 Q 75 553 73 557" stroke="white" stroke-width="0.75" fill="none" opacity="0.5"/>
  <path d="M60 600 Q 55 595 50 598 Q 45 603 47 607" stroke="white" stroke-width="0.75" fill="none" opacity="0.5"/>
  <path d="M60 650 Q 65 645 70 648 Q 75 653 73 657" stroke="white" stroke-width="0.75" fill="none" opacity="0.5"/>
  <path d="M60 700 Q 55 695 50 698 Q 45 703 47 707" stroke="white" stroke-width="0.75" fill="none" opacity="0.5"/>
  <path d="M60 750 Q 65 745 70 748 Q 75 753 73 757" stroke="white" stroke-width="0.75" fill="none" opacity="0.5"/>
</svg> 