<svg xmlns="http://www.w3.org/2000/svg" viewBox="0 0 500 50" fill="none">
  <path d="M250 2L265 20L250 38L235 20L250 2Z" fill="#4169E1" opacity="0.8"/>
  <path d="M215 10L225 22L215 34L205 22L215 10Z" fill="#4169E1" opacity="0.7"/>
  <path d="M285 10L295 22L285 34L275 22L285 10Z" fill="#4169E1" opacity="0.7"/>
  <path d="M180 15L188 25L180 35L172 25L180 15Z" fill="#4169E1" opacity="0.6"/>
  <path d="M320 15L328 25L320 35L312 25L320 15Z" fill="#4169E1" opacity="0.6"/>
  <path d="M145 18L152 26L145 34L138 26L145 18Z" fill="#7B68EE" opacity="0.5"/>
  <path d="M355 18L362 26L355 34L348 26L355 18Z" fill="#7B68EE" opacity="0.5"/>
  <path d="M110 20L116 27L110 34L104 27L110 20Z" fill="#7B68EE" opacity="0.4"/>
  <path d="M390 20L396 27L390 34L384 27L390 20Z" fill="#7B68EE" opacity="0.4"/>
  <path d="M75 21L80 27L75 33L70 27L75 21Z" fill="#7B68EE" opacity="0.3"/>
  <path d="M425 21L430 27L425 33L420 27L425 21Z" fill="#7B68EE" opacity="0.3"/>
  <path d="M40 22L44 27L40 32L36 27L40 22Z" fill="#7B68EE" opacity="0.2"/>
  <path d="M460 22L464 27L460 32L456 27L460 22Z" fill="#7B68EE" opacity="0.2"/>
  <path d="M5 23L8 27L5 31L2 27L5 23Z" fill="#7B68EE" opacity="0.1"/>
  <path d="M495 23L498 27L495 31L492 27L495 23Z" fill="#7B68EE" opacity="0.1"/>
  <line x1="0" y1="25" x2="500" y2="25" stroke="#4169E1" stroke-width="1" stroke-opacity="0.6" stroke-dasharray="4 4"/>
  <path d="M135 25L365 25" stroke="#4169E1" stroke-width="1.5" stroke-opacity="0.8"/>
</svg>
